<?xml version="1.0" encoding="utf-8"?>
<svg xmlns="http://www.w3.org/2000/svg" fill="none" height="100%" overflow="visible" preserveAspectRatio="none" style="display: block;" viewBox="0 0 24 24" width="100%">
<g id="bxl-linkedin.svg">
<path d="M16.4736 8.55469C20.2956 8.55469 21 11.0679 21 14.3379V20.9951H17.2285V15.0908C17.2285 13.6838 17.2045 11.873 15.2676 11.873C13.3037 11.8731 13.0059 13.4073 13.0059 14.9912V20.9941H9.23633V8.85547H12.8545V10.5146H12.9053C13.4083 9.56169 14.6387 8.55472 16.4736 8.55469ZM6.87012 20.9941H3.09473V8.85547H6.87012V20.9941ZM4.9834 2.82129C6.19151 2.82155 7.17079 3.80065 7.1709 5.00879C7.1709 6.21703 6.19158 7.19701 4.9834 7.19727C3.775 7.19727 2.79492 6.21719 2.79492 5.00879C2.79504 3.80049 3.77507 2.82129 4.9834 2.82129Z" fill="var(--fill-0, #040C21)" id="Union"/>
</g>
</svg>
