<?xml version="1.0" encoding="utf-8"?>
<svg xmlns="http://www.w3.org/2000/svg" fill="none" height="100%" overflow="visible" preserveAspectRatio="none" style="display: block;" viewBox="0 0 66 66" width="100%">
<g clip-path="url(#clip0_0_376)" id="Efficio Icon 2">
<path d="M48 0H18C8.05887 0 0 8.05887 0 18V48C0 57.9411 8.05887 66 18 66H48C57.9411 66 66 57.9411 66 48V18C66 8.05887 57.9411 0 48 0Z" fill="url(#paint0_linear_0_376)" id="Vector"/>
<path d="M48 0.5H18C8.33502 0.5 0.5 8.33502 0.5 18V48C0.5 57.665 8.33502 65.5 18 65.5H48C57.665 65.5 65.5 57.665 65.5 48V18C65.5 8.33502 57.665 0.5 48 0.5Z" id="Vector_2" stroke="url(#paint1_linear_0_376)" stroke-opacity="0.41"/>
<g id="Clip path group">
<mask height="43" id="mask0_0_376" maskUnits="userSpaceOnUse" style="mask-type:luminance" width="43" x="12" y="12">
<g id="clip0_110_4380">
<path d="M54.5 12H12.5V55H54.5V12Z" fill="var(--fill-0, white)" id="Vector_3"/>
</g>
</mask>
<g mask="url(#mask0_0_376)">
</g>
</g>
<path d="M45.2839 11.9452C44.9859 11.7638 51.5475 12.6844 51.6794 19.2275C51.7372 22.0424 55.8307 24.5901 55.3786 27.6845C55.1505 29.2198 54.0417 30.5289 53.0593 31.3798C53.7074 29.96 54.2225 28.0783 53.9392 26.6474C53.834 27.5599 53.5118 29.7623 51.4333 31.8417C50.949 32.3305 50.6084 32.7167 50.0857 33.0009C50.7847 32.8813 51.5296 32.7856 52.2995 32.7499C52.395 32.6136 52.4912 32.4589 52.5896 32.2909C52.9062 32.3011 53.226 32.3219 53.5466 32.3573C54.5453 32.4666 55.5007 33.1161 55.5007 33.1161C55.5007 33.1161 48.8098 33.9331 46.5573 35.0282C42.9006 36.8039 38.2561 39.0199 33.0427 43.0429C28.1423 46.8267 25.7063 49.04 20.1696 51.9794C18.3037 52.9723 16.5671 53.0839 15.7595 53.2734C14.9592 53.468 14.0915 53.9104 13.9421 54.4599C13.7954 55.0151 13.8768 55.6715 14.0671 55.8398C14.2571 56.0121 14.3608 55.9465 14.4899 55.6718C14.6161 55.3996 14.4899 54.4204 15.0622 54.04C15.6358 53.655 16.1034 53.7667 17.5857 53.5507C19.0668 53.3385 19.9194 52.999 20.1892 52.9345C20.4681 52.868 20.7434 52.9581 20.319 53.2323C19.8985 53.506 19.0916 54.0809 18.0271 54.2929C16.9699 54.505 16.3719 54.5678 16.0778 54.7577C15.788 54.9456 15.76 55.3263 15.7595 55.3339C15.7721 55.3325 16.5695 55.2452 16.9089 55.3144C17.2473 55.3741 18.0704 55.805 18.9148 55.8564C19.758 55.9082 21.3276 56.2236 22.5661 54.9931C23.2892 54.2722 26.0375 51.4301 30.07 49.8134C33.5245 48.4286 38.5817 48.5795 41.5847 44.7353C46.1121 38.9571 53.3074 41.2804 53.7107 42.2909C44.5107 41.2218 45.3707 48.2933 40.1403 50.1952C37.589 51.0928 30.4865 50.5825 23.7019 56.5478C21.5386 57.9614 18.1549 57.1348 17.2849 57.0946C16.4207 57.049 15.1652 57.0499 14.5534 57.2265C13.9423 57.3874 13.6431 57.3472 13.3474 57.1786C13.0486 57.0052 12.6491 56.8371 12.0368 56.5839C11.435 56.3305 10.9859 56.3262 10.9704 56.3261C10.9643 56.3141 10.2805 54.9665 10.573 54.0663C10.8672 53.1499 11.4795 52.554 11.8845 52.3339C12.2799 52.1344 12.3893 52.0883 12.3952 52.0859C12.3957 52.0814 12.4079 51.9572 12.2038 51.957C11.9907 51.957 11.7576 52.2107 11.6276 52.2343C11.5014 52.2561 11.5014 52.0635 11.6521 51.8544C11.8014 51.6394 12.776 50.6661 14.2136 50.7255C15.6582 50.7929 16.8039 51.3631 17.778 51.1943C18.7515 51.0226 20.6344 50.1954 23.114 48.3505C25.61 46.4927 28.1496 43.825 31.2556 41.5204C34.3025 39.2708 36.6127 37.8937 37.2663 37.5536C37.925 37.2158 37.9944 37.1945 38.0993 37.1093C38.2008 37.0222 38.2419 36.9405 37.654 37.0888C37.0566 37.237 34.7924 37.9739 33.8581 38.6347C32.9312 39.2893 32.5091 39.8589 32.5017 39.8691C32.5033 39.8564 32.6335 38.8836 33.3913 38.0644C34.1595 37.2372 34.2424 37.1523 34.3884 37.0429C34.5357 36.9403 34.4738 36.8578 34.2204 37.0009C33.9662 37.1524 32.7534 38.385 32.3103 39.037C31.867 39.6965 31.6303 40.0568 30.1911 40.2919C28.7543 40.5235 27.4588 40.8444 26.8903 41.3739C26.3234 41.894 26.0907 42.4208 26.0847 42.4345C26.0847 42.4345 25.8493 42.7256 25.8493 42.37C25.8495 42.0061 26.086 40.4397 27.7595 39.1864C29.4282 37.9363 30.2119 37.3612 30.5085 37.1523C30.8067 36.9403 30.7908 36.8579 30.5534 36.8769C30.3183 36.894 28.4103 37.2585 27.5495 37.9355C26.6983 38.5999 26.4336 38.876 26.4216 38.8886C26.4216 38.8886 26.1859 38.9566 26.2712 38.5302C26.3587 38.104 26.7693 36.8116 27.8864 36.0917C29.0012 35.3678 30.1726 34.9872 30.1726 34.9872L30.2165 33.8886C30.1846 33.8721 27.8363 32.6564 27.3122 32.2333C26.7788 31.8066 26.2497 31.3392 26.6774 28.8984C27.096 26.4579 27.1388 25.9517 27.1228 25.7382C27.0945 25.5276 26.1438 24.7621 26.3747 23.3788C26.6077 22.0156 27.1311 21.2339 27.1394 21.2216C27.1382 21.2517 27.076 22.8408 27.0964 23.7021C27.1231 24.5695 27.1392 25.0981 27.3952 25.3993C27.647 25.6962 27.669 25.5685 27.779 25.8915C27.8862 26.2067 27.3124 28.6226 27.1638 29.5351C27.0165 30.4476 26.6936 31.2954 27.3952 31.2148C28.0942 31.1257 27.9049 30.9551 28.0944 30.747C28.2863 30.5323 28.6679 30.448 28.9607 30.5321C29.2589 30.6176 29.4281 30.7657 29.7263 30.6806C30.0232 30.5934 30.8272 30.6812 30.363 31.2499C29.8996 31.8286 29.1566 31.6545 29.3649 32.1835C29.5769 32.7148 32.1315 34.3154 33.0339 33.7431C34.1623 33.0363 34.7401 32.8915 34.7868 32.4306C34.8256 31.9619 33.9661 31.2281 33.3523 31.5732C32.7371 31.908 31.6788 32.2724 31.0612 32.1435C30.4455 32.019 30.2786 31.7386 30.487 31.7626C30.7019 31.7833 31.3356 31.991 31.9323 31.2948C32.5244 30.593 37.5359 28.1194 38.4294 26.6747C39.3191 25.2339 37.9259 21.6636 38.6091 20.9872C39.2833 20.308 44.3208 19.2036 45.2321 18.8993C47.1422 18.2622 48.4427 16.5746 48.0183 15.0321C47.781 14.1774 46.5184 12.7003 45.2839 11.9452ZM14.0095 53.455C12.4698 53.1294 11.7651 54.6669 11.7194 54.8007C11.5408 55.2778 12.1113 55.9547 12.2868 55.5282C12.8437 54.1586 14.4364 53.5468 14.0095 53.455ZM30.7683 9.29094C31.4255 8.8498 33.6742 8.78637 34.5437 9.99113C35.5292 11.3538 40.595 11.7765 41.3083 12.7196C42.1277 13.8058 41.5526 15.0198 41.1208 15.4941C40.2449 16.4431 36.343 19.7218 36.0085 19.7577C35.6257 19.7957 35.8639 18.7889 36.197 17.9111C36.5338 17.0322 37.0743 16.4183 36.8942 15.5282C36.7477 14.772 36.2229 14.1053 35.154 13.3945C33.6416 12.4447 30.7409 11.8528 29.7019 12.2821C27.9021 13.0351 27.2488 14.7408 27.0964 15.9374C26.9443 17.133 26.7761 18.7662 25.6472 20.7011C24.5154 22.6303 23.8283 23.742 24.0954 24.872C24.3624 26.0068 25.2378 27.8625 25.3386 28.957C25.4468 30.0518 25.3159 30.9344 25.0749 32.0282C24.8375 33.1191 24.6845 33.9264 25.0251 34.6484C25.3659 35.3741 25.5335 35.529 25.6198 35.6259C25.7054 35.734 25.7613 35.9102 25.5065 35.7343C25.2508 35.5486 23.8284 34.1406 23.3239 32.6376C22.8114 31.1342 23.2981 29.0102 23.0915 28.2695C22.8841 27.5305 21.4807 25.4948 21.5886 23.7909C21.7058 22.0827 23.0448 20.2535 23.6267 19.3085C24.2105 18.3636 25.5048 16.5856 25.7761 15.7704C26.0398 14.9558 26.5984 13.415 26.8796 13.0321C26.8796 13.0321 26.6428 13.2388 25.4499 14.6894C24.2553 16.1437 23.1901 17.1889 22.8698 18.5165C22.5516 19.8429 21.776 21.0953 20.7683 21.957C19.7715 22.8228 20.3702 23.9805 20.7009 25.3857C21.0305 26.7809 21.2608 27.2827 22.028 28.6835C22.7895 30.0796 22.4277 31.2154 22.5173 31.4091C22.6033 31.5937 21.9326 30.3748 21.5925 30.1073C21.248 29.8409 20.2302 28.7613 19.5153 26.538C18.8038 24.309 17.959 22.7874 19.4118 20.582C20.8559 18.3812 20.9995 16.3186 21.1921 15.5575C21.379 14.7911 21.3105 13.7439 23.0769 12.8388C24.8455 11.9426 26.1947 11.7254 27.5046 11.2773C28.8112 10.8327 30.1556 9.70002 30.7683 9.29094ZM42.5534 22.0937C44.1308 26.0953 42.5616 31.5798 42.3278 32.122C42.0944 32.6576 40.5183 35.6757 40.5183 35.6757C40.5363 35.6617 43.8062 33.1222 44.6862 29.4462C45.2351 27.1212 42.4584 21.8581 42.5534 22.0937ZM45.8835 20.8827C46.105 21.0965 48.6219 24.8099 48.7585 25.1034C49.4693 26.64 49.9011 28.0056 49.6394 29.3778C49.3768 30.7237 48.4573 31.8724 47.4626 32.7939C48.0257 32.5149 48.8565 32.0645 49.2624 31.6825C49.7634 31.2199 52.0357 27.9909 50.3845 25.1435C49.5345 23.2514 46.3034 20.9519 45.8835 20.8827ZM40.739 27.4198C40.6291 27.1671 37.5736 31.9545 36.529 32.5663C36.5468 32.5595 40.2414 31.1484 40.6823 29.9296C41.0167 29.0011 40.846 27.6718 40.739 27.4198ZM35.8972 20.6884C35.972 20.7394 35.1947 22.6447 33.9079 24.872C32.6248 27.0967 31.8247 28.4108 31.6228 28.703C31.4179 28.9927 31.1648 29.2237 31.1999 28.9677C31.2413 28.7161 31.5833 27.7108 31.6335 27.1503C31.6842 26.5916 31.7349 26.0662 31.3317 26.1747C30.9297 26.2729 30.4813 26.2727 30.3005 26.1347C30.1192 25.9965 30.1067 25.8383 30.2858 25.8232C30.4645 25.8113 31.2772 25.5852 31.6228 25.29C31.9621 25.0029 32.1332 24.7311 32.2097 24.5536C32.2863 24.3768 32.2824 24.2591 31.9753 24.4159C31.6758 24.5656 31.0511 25.0123 30.7927 25.1728C30.5421 25.3433 30.0106 25.4823 29.9821 25.5859C29.956 25.6893 30.11 26.3496 30.1101 27.0195C30.1101 27.6953 30.0364 28.788 29.8269 28.6249C29.6233 28.4622 29.7142 27.9893 29.3991 27.6845C29.0805 27.3786 28.7006 26.8502 28.7497 26.3105C28.8012 25.7739 28.8765 25.6393 28.7839 25.3329C28.6947 25.0274 28.6857 24.5905 28.9509 24.539C29.2172 24.4909 29.3215 24.7719 29.945 24.6679C30.5288 24.5719 31.1518 24.1974 31.6228 23.832C32.0936 23.4592 32.9059 22.5715 33.3532 22.4784C33.7969 22.3904 34.0898 22.4279 34.4401 21.9853C34.7968 21.5372 35.2168 21.1279 35.4255 20.9775C35.628 20.8224 35.8213 20.6374 35.8972 20.6884ZM31.5837 13.04C32.1572 13.0789 35.5293 14.195 36.0095 15.1503C36.4868 16.1054 35.055 18.8793 34.6394 18.9306C34.2157 18.9773 34.5679 17.2891 34.1794 16.7499C33.6169 15.9761 31.4497 15.5852 30.6706 16.3661L26.1716 21.4618C26.0643 21.6062 28.2414 16.8565 28.3581 16.1962C28.6272 14.7341 29.3024 12.9022 31.5837 13.04ZM34.9382 9.35246C36.5713 9.27134 38.5855 8.82016 40.2253 9.36808C40.3743 9.38557 43.634 11.0192 44.9958 12.5878C45.6717 13.3614 47.1065 14.9175 46.8942 15.8622C46.6724 16.8027 46.2756 17.313 44.8815 18.037C44.0519 18.4705 37.6589 19.8508 37.5319 19.8827C36.4755 20.1618 36.7472 19.6427 37.2282 19.2675C37.7135 18.9033 38.3129 18.4084 39.8347 17.4648C41.3582 16.5199 42.0231 16.1219 42.6062 15.455C43.6562 14.2575 42.9833 11.6419 39.9558 10.6571C38.1641 10.2366 36.3781 10.727 34.9196 9.69914C34.8238 9.62856 34.761 9.36096 34.9382 9.35246Z" fill="url(#paint2_linear_0_376)" id="Combined Shape"/>
</g>
<defs>
<linearGradient gradientUnits="userSpaceOnUse" id="paint0_linear_0_376" x1="25.5" x2="47" y1="57.5" y2="-3">
<stop stop-color="#09BAD4"/>
<stop offset="1" stop-color="#09BAD4"/>
</linearGradient>
<linearGradient gradientUnits="userSpaceOnUse" id="paint1_linear_0_376" x1="14.3513" x2="52.6487" y1="-4.50099" y2="72.501">
<stop stop-color="white"/>
<stop offset="1" stop-color="#0B0B0B"/>
</linearGradient>
<linearGradient gradientUnits="userSpaceOnUse" id="paint2_linear_0_376" x1="90.4997" x2="27.4997" y1="33.9999" y2="8.99992">
<stop stop-color="#2358A9"/>
<stop offset="1" stop-color="#132C52"/>
</linearGradient>
<clipPath id="clip0_0_376">
<rect fill="white" height="66" width="66"/>
</clipPath>
</defs>
</svg>