<?xml version="1.0" encoding="utf-8"?>
<svg xmlns="http://www.w3.org/2000/svg" fill="none" height="100%" overflow="visible" preserveAspectRatio="none" style="display: block;" viewBox="0 0 66 66" width="100%">
<g clip-path="url(#clip0_0_376)" id="Efficio Icon 2">
<path d="M48 0H18C8.05887 0 0 8.05887 0 18V48C0 57.9411 8.05887 66 18 66H48C57.9411 66 66 57.9411 66 48V18C66 8.05887 57.9411 0 48 0Z" fill="url(#paint0_linear_0_376)" id="Vector"/>
<path d="M48 0.5H18C8.33502 0.5 0.5 8.33502 0.5 18V48C0.5 57.665 8.33502 65.5 18 65.5H48C57.665 65.5 65.5 57.665 65.5 48V18C65.5 8.33502 57.665 0.5 48 0.5Z" id="Vector_2" stroke="url(#paint1_linear_0_376)" stroke-opacity="0.41"/>
<g id="Clip path group">
<mask height="43" id="mask0_0_376" maskUnits="userSpaceOnUse" style="mask-type:luminance" width="43" x="12" y="12">
<g id="clip0_110_4380">
<path d="M54.5 12H12.5V55H54.5V12Z" fill="var(--fill-0, white)" id="Vector_3"/>
</g>
</mask>
<g mask="url(#mask0_0_376)">
</g>
</g>
<path d="M45.2842 11.9455C44.9869 11.7642 51.547 12.6856 51.6787 19.2287C51.737 22.0435 55.8303 24.5914 55.3779 27.6857C55.1497 29.2204 54.0415 30.5284 53.0596 31.3791C53.7075 29.9594 54.2226 28.0783 53.9394 26.6476C53.8342 27.5602 53.511 29.7618 51.4326 31.841C50.9483 32.3298 50.6086 32.717 50.0859 33.0011C50.785 32.8816 51.5298 32.7858 52.2998 32.7502C52.3953 32.6139 52.4915 32.4591 52.5898 32.2912C52.9061 32.3016 53.2255 32.3231 53.5459 32.3586C54.5377 32.467 55.4866 33.1083 55.5 33.1174C55.4514 33.1233 48.8019 33.9374 46.5576 35.0285C42.9008 36.8041 38.2565 39.021 33.043 43.0441C28.1426 46.8279 25.7066 49.0413 20.1699 51.9806C18.3039 52.9735 16.5673 53.0851 15.7598 53.2746C14.9594 53.4692 14.0908 53.9106 13.9414 54.4601C13.7948 55.0151 13.8763 55.6724 14.0664 55.841C14.2562 56.013 14.3612 55.9473 14.4902 55.673C14.6166 55.4011 14.4901 54.4218 15.0625 54.0412C15.6361 53.6562 16.1029 53.7669 17.585 53.551C19.0658 53.3388 19.9184 53.0004 20.1885 52.9357C20.4677 52.8689 20.7435 52.9589 20.3184 53.2336C19.8976 53.5074 19.0915 54.0822 18.0273 54.2941C16.9699 54.5063 16.3721 54.569 16.0781 54.759C15.7902 54.9457 15.7606 55.3219 15.7598 55.3342C15.7692 55.3331 16.5693 55.2461 16.9092 55.3156C17.2476 55.3754 18.0707 55.8054 18.915 55.8566C19.7582 55.9084 21.327 56.2244 22.5654 54.9943C23.2879 54.2741 26.0363 51.4317 30.0693 49.8146C33.5237 48.4297 38.5819 48.5806 41.585 44.7365C46.1121 38.9586 53.3067 41.2805 53.7109 42.2912C44.5106 41.2219 45.3712 48.2946 40.1406 50.1965C37.5893 51.0941 30.4869 50.5827 23.7021 56.548C21.5392 57.9617 18.1557 57.1362 17.2851 57.0959C16.4208 57.0502 15.1644 57.05 14.5527 57.2267C13.9419 57.3876 13.6433 57.3473 13.3476 57.1789C13.0489 57.0055 12.6484 56.8383 12.0361 56.5851C11.4297 56.3299 10.9784 56.3273 10.9697 56.3273C10.9671 56.3222 10.2796 54.97 10.5723 54.0676C10.8664 53.1512 11.4787 52.5554 11.8838 52.3351C12.2818 52.1343 12.3907 52.0891 12.3955 52.0871C12.3955 52.0871 12.4114 51.9582 12.2031 51.9582C11.9902 51.9584 11.7579 52.2107 11.6279 52.2345C11.5016 52.2565 11.5016 52.0637 11.6523 51.8547C11.8023 51.6391 12.7769 50.6673 14.2139 50.7267C15.6583 50.7942 16.8043 51.3633 17.7783 51.1945C18.7518 51.0227 20.6349 50.1955 23.1143 48.3508C25.6102 46.4931 28.1492 43.8261 31.2549 41.5217C34.3021 39.2717 36.613 37.895 37.2666 37.5549C37.9252 37.217 37.9937 37.1947 38.0986 37.1095C38.2003 37.0223 38.2426 36.9416 37.6543 37.09C37.0569 37.2382 34.7927 37.9741 33.8584 38.6349C32.9316 39.2894 32.5097 39.8588 32.5019 39.8693C32.504 39.8541 32.635 38.8837 33.3916 38.0656C34.1593 37.239 34.242 37.1534 34.3877 37.0441C34.5356 36.9414 34.4744 36.8588 34.2207 37.0021C33.9663 37.1538 32.7527 38.3854 32.3096 39.0373C31.8664 39.6967 31.6299 40.058 30.1904 40.2931C28.7535 40.5247 27.458 40.8445 26.8896 41.3742C26.3152 41.9011 26.085 42.4357 26.085 42.4357C26.0781 42.4441 25.8498 42.7209 25.8496 42.3713C25.8496 42.0083 26.085 40.4414 27.7588 39.1877C29.4276 37.9374 30.2121 37.3625 30.5088 37.1535C30.8073 36.9413 30.7906 36.858 30.5527 36.8771C30.3166 36.8944 28.4102 37.2599 27.5498 37.9367C26.6781 38.6171 26.4209 38.8898 26.4209 38.8898C26.4098 38.8928 26.1885 38.9467 26.2715 38.5314C26.3589 38.1055 26.7694 36.813 27.8867 36.0929C28.9945 35.3734 30.1574 34.9922 30.1719 34.9875L30.2168 33.8888C30.1845 33.8722 27.837 32.6568 27.3125 32.2336C26.7791 31.8069 26.2502 31.3397 26.6777 28.8996C27.096 26.4604 27.139 25.9531 27.123 25.7394C27.0963 25.5296 26.1443 24.7641 26.375 23.3801C26.6074 22.0202 27.1278 21.2381 27.1387 21.2218C27.1376 21.2492 27.0762 22.8413 27.0967 23.7033C27.1234 24.5702 27.1396 25.0985 27.3955 25.3996C27.6471 25.6962 27.6694 25.5692 27.7793 25.8918C27.886 26.2083 27.3125 28.6243 27.1641 29.5363C27.0168 30.4487 26.694 31.2956 27.3955 31.215C28.094 31.126 27.9054 30.9562 28.0947 30.7482C28.2866 30.5333 28.668 30.449 28.9609 30.5334C29.2591 30.6188 29.4283 30.767 29.7266 30.6818C30.0234 30.5946 30.8279 30.6821 30.3633 31.2511C29.8999 31.8296 29.1566 31.6556 29.3652 32.1847C29.579 32.7166 32.1308 34.3155 33.0332 33.7443C34.162 33.0372 34.7405 32.8919 34.7871 32.4308C34.8259 31.962 33.9655 31.2286 33.3516 31.5744C32.7364 31.9091 31.679 32.2725 31.0615 32.1437C30.4458 32.0193 30.2789 31.7399 30.4873 31.7638C30.7025 31.7848 31.3362 31.9917 31.9326 31.2961C32.5238 30.5946 37.5355 28.1208 38.4297 26.676C39.3195 25.2353 37.9254 21.6642 38.6084 20.9875C39.282 20.3083 44.3212 19.2038 45.2324 18.8996C47.1422 18.2624 48.4426 16.5757 48.0185 15.0334C47.7816 14.1788 46.5189 12.7007 45.2842 11.9455ZM14.0098 53.4552C12.4697 53.1295 11.7652 54.6676 11.7197 54.801C11.5411 55.2781 12.1115 55.9549 12.2871 55.5285C12.8439 54.1589 14.4363 53.5471 14.0098 53.4552ZM30.7685 9.29118C31.4259 8.85017 33.6734 8.78706 34.543 9.99138C35.5289 11.3539 40.5953 11.7768 41.3086 12.7199C42.1276 13.806 41.5528 15.0202 41.1211 15.4943C40.2451 16.4434 36.3428 19.7235 36.0088 19.759C35.6257 19.7973 35.8642 18.7892 36.1973 17.9113C36.534 17.0327 37.0732 16.4192 36.8935 15.5295C36.7471 14.773 36.2224 14.1057 35.1533 13.3947C33.6407 12.445 30.741 11.8529 29.7021 12.2824C27.9021 13.0353 27.249 14.741 27.0967 15.9377C26.9446 17.1333 26.7764 18.7665 25.6475 20.7013C24.5157 22.6305 23.8286 23.7422 24.0957 24.8722C24.3628 26.0072 25.2382 27.8639 25.3389 28.9582C25.447 30.0526 25.3161 30.935 25.0752 32.0285C24.8378 33.1194 24.6846 33.9276 25.0254 34.6496C25.366 35.3748 25.5338 35.5293 25.6201 35.6261C25.7056 35.7343 25.7611 35.9101 25.5068 35.7345C25.2514 35.5492 23.8277 34.141 23.3232 32.6379C22.8108 31.1346 23.2972 29.0107 23.0908 28.2697C22.8832 27.5307 21.4811 25.4949 21.5889 23.7912C21.706 22.0831 23.044 20.2539 23.626 19.3088C24.2098 18.3639 25.5051 16.586 25.7764 15.7707C26.04 14.9562 26.5976 13.4156 26.8789 13.0324C26.8709 13.0395 26.6232 13.2632 25.4502 14.6896C24.2555 16.144 23.1903 17.1891 22.8701 18.5168C22.5518 19.8433 21.7764 21.0965 20.7685 21.9582C19.7718 22.8241 20.3705 23.9816 20.7012 25.3869C21.0307 26.7816 21.2612 27.2832 22.0283 28.6838C22.7895 30.0798 22.4269 31.2158 22.5166 31.4093C22.6027 31.5941 21.933 30.3754 21.5928 30.1076C21.2484 29.8413 20.2296 28.7618 19.5146 26.5383C18.8031 24.3092 17.9592 22.7877 19.4121 20.5822C20.8561 18.3817 20.9988 16.3191 21.1914 15.5578C21.3784 14.7914 21.3107 13.7442 23.0771 12.839C24.8457 11.943 26.195 11.7256 27.5049 11.2775C28.8113 10.8329 30.1559 9.70029 30.7685 9.29118ZM42.5537 22.0939C44.1311 26.0958 42.5617 31.5807 42.3281 32.1222C42.0946 32.6579 40.5176 35.676 40.5176 35.676C40.5176 35.676 43.8029 33.1324 44.6855 29.4465C45.2346 27.1209 42.4574 21.8557 42.5537 22.0939ZM45.8838 20.883C46.1057 21.0972 48.6222 24.8102 48.7588 25.1037C49.4695 26.6402 49.9004 28.0059 49.6387 29.3781C49.376 30.7235 48.4573 31.8718 47.4629 32.7931C48.0258 32.5142 48.8558 32.0646 49.2617 31.6828C49.7622 31.221 52.0363 27.9916 50.3848 25.1437C49.535 23.2516 46.3037 20.9521 45.8838 20.883ZM40.7383 27.4201C40.6284 27.1674 37.5729 31.9538 36.5283 32.5656C36.5283 32.5656 40.2406 31.1516 40.6826 29.9299C41.017 29.0013 40.8453 27.6719 40.7383 27.4201ZM35.8965 20.6896C35.9709 20.7415 35.1948 22.6454 33.9082 24.8722C32.6253 27.0966 31.8252 28.4106 31.623 28.7033C31.4184 28.9928 31.1654 29.2241 31.2002 28.9689C31.2412 28.7183 31.5835 27.7115 31.6338 27.1506C31.6845 26.5917 31.7347 26.0659 31.331 26.175C30.929 26.2731 30.4806 26.273 30.2998 26.1349C30.1188 25.9968 30.1069 25.8384 30.2861 25.8234C30.465 25.8115 31.2774 25.5854 31.623 25.2902C31.9622 25.0033 32.1335 24.7313 32.21 24.5539C32.2865 24.3771 32.2828 24.2602 31.9756 24.4172C31.676 24.5669 31.0513 25.0136 30.793 25.174C30.5422 25.3445 30.0104 25.4826 29.9824 25.5861C29.9562 25.6892 30.1103 26.3497 30.1103 27.0197C30.1103 27.6955 30.0356 28.7888 29.8262 28.6261C29.6227 28.4635 29.714 27.9905 29.3994 27.6857C29.0808 27.38 28.701 26.8505 28.75 26.3107C28.8014 25.7744 28.8767 25.6394 28.7842 25.3332C28.695 25.0276 28.686 24.5907 28.9512 24.5392C29.2173 24.4914 29.322 24.7721 29.9453 24.6681C30.529 24.5721 31.1521 24.1976 31.623 23.8322C32.0938 23.4594 32.9053 22.5719 33.3525 22.4787C33.7965 22.3905 34.0899 22.4284 34.4404 21.9855C34.7972 21.5373 35.2171 21.128 35.4258 20.9777C35.6283 20.8227 35.8205 20.6387 35.8965 20.6896ZM31.584 13.0412C32.1584 13.0806 35.5281 14.1955 36.0088 15.1506C36.4857 16.1056 35.0556 18.8785 34.6396 18.9308C34.2161 18.9775 34.5675 17.291 34.1797 16.7511C33.6175 15.9771 31.45 15.5853 30.6709 16.3664L26.1719 21.4631C26.0686 21.599 28.2408 16.859 28.3584 16.1974C28.6274 14.7352 29.3024 12.9035 31.584 13.0412ZM34.9385 9.35271C36.5716 9.27157 38.5859 8.81942 40.2256 9.36736C40.3751 9.38514 43.6333 11.0196 44.9951 12.5881C45.6711 13.3617 47.107 14.9179 46.8945 15.8625C46.6726 16.8027 46.2757 17.3124 44.8818 18.0363C44.0527 18.4701 37.6401 19.854 37.5312 19.882C36.4749 20.161 36.7476 19.6429 37.2285 19.2677C37.7137 18.9036 38.3126 18.4085 39.834 17.465C41.3573 16.5203 42.0224 16.1219 42.6055 15.4552C43.6558 14.2578 42.9829 11.6422 39.9551 10.6574C38.1636 10.237 36.3783 10.7269 34.9199 9.69939C34.8239 9.62913 34.761 9.36112 34.9385 9.35271Z" fill="url(#paint2_linear_0_376)" id="Combined Shape"/>
</g>
<defs>
<linearGradient gradientUnits="userSpaceOnUse" id="paint0_linear_0_376" x1="25.5" x2="47" y1="57.5" y2="-3">
<stop stop-color="#09BAD4"/>
<stop offset="1" stop-color="#09BAD4"/>
</linearGradient>
<linearGradient gradientUnits="userSpaceOnUse" id="paint1_linear_0_376" x1="14.3513" x2="52.6487" y1="-4.50099" y2="72.501">
<stop stop-color="white"/>
<stop offset="1" stop-color="#0B0B0B"/>
</linearGradient>
<linearGradient gradientUnits="userSpaceOnUse" id="paint2_linear_0_376" x1="90.5" x2="27.5" y1="34.0001" y2="9.00011">
<stop stop-color="#2358A9"/>
<stop offset="1" stop-color="#132C52"/>
</linearGradient>
<clipPath id="clip0_0_376">
<rect fill="white" height="66" width="66"/>
</clipPath>
</defs>
</svg>