<?xml version="1.0" encoding="utf-8"?>
<svg xmlns="http://www.w3.org/2000/svg" fill="none" height="100%" overflow="visible" preserveAspectRatio="none" style="display: block;" viewBox="0 0 16 21" width="100%">
<path clip-rule="evenodd" d="M8 0C5.87827 0 3.84344 0.819788 2.34315 2.27902C0.842855 3.73825 0 5.7174 0 7.78106C0 12.0784 4.34023 16.7277 8 21C11.6598 16.7277 16 12.0784 16 7.78106C16 5.7174 15.1571 3.73825 13.6569 2.27902C12.1566 0.819788 10.1217 0 8 0ZM8 11.4888C7.24604 11.4888 6.50902 11.2714 5.88213 10.8639C5.25524 10.4565 4.76664 9.87746 4.47811 9.19996C4.18958 8.52245 4.11409 7.77695 4.26118 7.05772C4.40827 6.33849 4.77133 5.67783 5.30446 5.15929C5.83759 4.64076 6.51683 4.28763 7.2563 4.14457C7.99577 4.0015 8.76225 4.07493 9.45881 4.35556C10.1554 4.63619 10.7507 5.11142 11.1696 5.72115C11.5885 6.33089 11.8121 7.04774 11.8121 7.78106C11.8102 8.76385 11.4079 9.70585 10.6934 10.4008C9.97895 11.0957 9.01044 11.487 8 11.4888Z" fill="var(--fill-0, #C6CDDE)" fill-rule="evenodd" id="Vector"/>
</svg>