<?xml version="1.0" encoding="utf-8"?>
<svg xmlns="http://www.w3.org/2000/svg" fill="none" height="100%" overflow="visible" preserveAspectRatio="none" style="display: block;" viewBox="0 0 66 66" width="100%">
<g clip-path="url(#clip0_0_469)" id="Efficio Icon 2">
<path d="M48 0H18C8.05887 0 0 8.05887 0 18V48C0 57.9411 8.05887 66 18 66H48C57.9411 66 66 57.9411 66 48V18C66 8.05887 57.9411 0 48 0Z" fill="url(#paint0_linear_0_469)" id="Vector"/>
<path d="M48 0.5H18C8.33502 0.5 0.5 8.33502 0.5 18V48C0.5 57.665 8.33502 65.5 18 65.5H48C57.665 65.5 65.5 57.665 65.5 48V18C65.5 8.33502 57.665 0.5 48 0.5Z" id="Vector_2" stroke="url(#paint1_linear_0_469)" stroke-opacity="0.41"/>
<g id="Clip path group">
<mask height="43" id="mask0_0_469" maskUnits="userSpaceOnUse" style="mask-type:luminance" width="43" x="12" y="12">
<g id="clip0_110_4380">
<path d="M54.5 12H12.5V55H54.5V12Z" fill="var(--fill-0, white)" id="Vector_3"/>
</g>
</mask>
<g mask="url(#mask0_0_469)">
</g>
</g>
<path d="M45.2845 11.9456C44.9839 11.7637 51.5471 12.6835 51.6791 19.2278C51.7372 22.0426 55.8304 24.5905 55.3783 27.6848C55.1502 29.2193 54.0419 30.5273 53.0599 31.3782C53.7076 29.9587 54.2228 28.0781 53.9398 26.6477C53.8346 27.5603 53.5111 29.7619 51.433 31.8411C50.9487 32.3298 50.6088 32.7171 50.0863 33.0012C50.7853 32.8817 51.5303 32.7859 52.3001 32.7502C52.3958 32.6137 52.4916 32.4585 52.5902 32.2903C52.9065 32.3005 53.226 32.3222 53.5462 32.3577C54.5363 32.466 55.4838 33.1053 55.5003 33.1165C55.5003 33.1165 48.8105 33.9334 46.558 35.0286C42.9012 36.8042 38.2569 39.021 33.0433 43.0442C28.1429 46.8281 25.7061 49.0403 20.1693 51.9797C18.3035 52.9724 16.5678 53.0842 15.7601 53.2737C14.9597 53.4683 14.091 53.9106 13.9417 54.4602C13.7952 55.0154 13.8765 55.6728 14.0667 55.8411C14.2564 56.0129 14.3606 55.9464 14.4896 55.6721C14.6159 55.4002 14.4904 54.4208 15.0628 54.0403C15.6363 53.6556 16.1035 53.7669 17.5853 53.551C19.0664 53.3389 19.9189 53.0004 20.1888 52.9358C20.468 52.869 20.7438 52.958 20.3187 53.2327C19.8981 53.5063 19.0921 54.0812 18.0277 54.2932C16.9705 54.5054 16.3725 54.5682 16.0785 54.7581C15.7855 54.9478 15.7601 55.3342 15.7601 55.3342C15.7797 55.3321 16.5719 55.2457 16.9095 55.3147C17.2481 55.3746 18.0712 55.8054 18.9154 55.8567C19.7587 55.9086 21.3274 56.2237 22.5658 54.9934C23.2884 54.273 26.0367 51.4307 30.0697 49.8137C33.5241 48.4289 38.5813 48.5797 41.5843 44.7356C46.1119 38.9572 53.3083 41.2808 53.7113 42.2913C44.5109 41.2219 45.3713 48.2935 40.141 50.1956C37.5898 51.0933 30.4874 50.5825 23.7025 56.5481C21.5393 57.962 18.1546 57.1361 17.2845 57.096C16.4202 57.0503 15.1647 57.0501 14.5531 57.2268C13.9424 57.3876 13.6435 57.3472 13.348 57.179C13.0492 57.0056 12.6487 56.8374 12.0365 56.5842C11.4321 56.3298 10.9816 56.3265 10.9701 56.3264C10.9577 56.3021 10.2818 54.9626 10.5726 54.0667C10.8669 53.1502 11.4791 52.5543 11.8841 52.3342C12.2914 52.1287 12.3958 52.0862 12.3958 52.0862C12.3964 52.0816 12.4078 51.9574 12.2035 51.9573C11.9903 51.9573 11.7572 52.211 11.6273 52.2346C11.5014 52.256 11.5021 52.0636 11.6527 51.8547C11.8022 51.6396 12.776 50.6666 14.2132 50.7258C15.6576 50.7932 16.8036 51.3632 17.7777 51.1946C18.7512 51.0229 20.6349 50.1958 23.1146 48.3508C25.6105 46.4931 28.1495 43.8262 31.2552 41.5217C34.3026 39.2717 36.6135 37.8939 37.2669 37.554C37.9252 37.2163 37.9941 37.1947 38.099 37.1096C38.2006 37.0224 38.2425 36.9409 37.6546 37.0891C37.0573 37.2373 34.793 37.9742 33.8587 38.635C32.9233 39.2956 32.5023 39.8694 32.5023 39.8694C32.5023 39.8694 32.6284 38.8892 33.391 38.0647C34.1593 37.2374 34.2421 37.1526 34.388 37.0432C34.5359 36.9405 34.474 36.8577 34.2201 37.0012C33.9658 37.1528 32.7529 38.3855 32.3099 39.0374C31.8667 39.6968 31.6301 40.0571 30.1908 40.2922C28.7537 40.5238 27.4583 40.8445 26.89 41.3743C26.3252 41.8924 26.0929 42.4174 26.0853 42.4348C26.0802 42.441 25.8493 42.7218 25.849 42.3713C25.849 42.0084 26.0849 40.4406 27.7591 39.1868C29.428 37.9365 30.2125 37.3626 30.5091 37.1536C30.8076 36.9414 30.7908 36.8581 30.5531 36.8772C30.3178 36.8943 28.4097 37.2596 27.5492 37.9368C26.6778 38.617 26.4212 38.8899 26.4212 38.8899C26.4118 38.8924 26.1884 38.9477 26.2718 38.5305C26.3594 38.1043 26.7694 36.8129 27.8861 36.093C28.997 35.3714 30.1641 34.9902 30.1722 34.9876L30.2171 33.8889C30.2171 33.8889 27.8416 32.66 27.3128 32.2336C26.7794 31.807 26.2504 31.3393 26.6781 28.8987C27.0961 26.4615 27.1393 25.9535 27.1234 25.7395C27.0966 25.5296 26.1435 24.7634 26.3744 23.3792C26.6062 22.0229 27.1255 21.242 27.139 21.2219C27.1376 21.259 27.0757 22.8431 27.096 23.7024C27.1228 24.5695 27.139 25.0985 27.3949 25.3997C27.6466 25.6964 27.6696 25.5688 27.7796 25.8919C27.8861 26.2088 27.3129 28.6233 27.1644 29.5354C27.0171 30.4477 26.6937 31.2954 27.3949 31.2151C28.0939 31.1261 27.9047 30.9554 28.0941 30.7473C28.2859 30.5324 28.6683 30.4481 28.9613 30.5325C29.2594 30.6179 29.4287 30.767 29.7269 30.6819C30.0239 30.5948 30.8272 30.6814 30.3626 31.2502C29.8994 31.8286 29.1565 31.6552 29.3646 32.1838C29.5776 32.7155 32.1314 34.3156 33.0335 33.7434C34.1621 33.0365 34.7406 32.8918 34.7874 32.4309C34.8264 31.9621 33.9659 31.2286 33.3519 31.5745C32.7367 31.9093 31.6784 32.2727 31.0609 32.1438C30.4459 32.0194 30.279 31.7394 30.4867 31.7629C30.7017 31.7837 31.3353 31.9911 31.932 31.2952C32.523 30.5937 37.5364 28.1199 38.43 26.6751C39.3196 25.2342 37.9258 21.6642 38.6087 20.9876C39.282 20.3085 44.3194 19.2041 45.2318 18.8997C47.1415 18.2626 48.4426 16.5757 48.0189 15.0335C47.782 14.1789 46.5192 12.7009 45.2845 11.9456ZM14.0101 53.4553C12.47 53.1295 11.7655 54.6676 11.7201 54.801C11.5415 55.2781 12.1108 55.9545 12.2865 55.5286C12.8431 54.1594 14.4354 53.5475 14.0101 53.4553ZM30.7689 9.29126C31.4264 8.85033 33.6739 8.7871 34.5433 9.99146C35.5293 11.3539 40.5957 11.7769 41.3089 12.72C42.1278 13.8061 41.5522 15.0203 41.1205 15.4944C40.2442 16.4437 36.344 19.7227 36.0091 19.759C35.6258 19.7978 35.8644 18.7895 36.1976 17.9114C36.5343 17.0329 37.0735 16.4192 36.8939 15.5295C36.7474 14.7731 36.2227 14.1058 35.1537 13.3948C33.6412 12.4451 30.7415 11.8531 29.7025 12.2825C27.9024 13.0354 27.2494 14.7411 27.097 15.9377C26.9449 17.1334 26.7758 18.7666 25.6468 20.7014C24.5152 22.6304 23.8281 23.7424 24.0951 24.8723C24.3621 26.0072 25.2374 27.8629 25.3382 28.9573C25.4464 30.0519 25.3165 30.9349 25.0755 32.0286C24.8381 33.1195 24.6849 33.9277 25.0257 34.6497C25.3659 35.3739 25.5331 35.5293 25.6195 35.6262C25.7049 35.7343 25.7612 35.9099 25.5072 35.7346C25.2519 35.5495 23.8282 34.1412 23.3236 32.6379C22.8111 31.1347 23.2975 29.0108 23.0912 28.2698C22.8837 27.5308 21.4814 25.4951 21.5892 23.7913C21.7064 22.0831 23.0444 20.2539 23.6263 19.3088C24.2102 18.364 25.5055 16.586 25.7767 15.7708C26.0404 14.9562 26.598 13.4155 26.8792 13.0325C26.8753 13.036 26.6335 13.2512 25.4505 14.6897C24.2558 16.1442 23.1907 17.1891 22.8705 18.5169C22.5522 19.8434 21.7759 21.0966 20.7679 21.9583C19.7716 22.8241 20.3699 23.9818 20.7005 25.387C21.0301 26.7818 21.2615 27.2832 22.0287 28.6838C22.7899 30.0798 22.4273 31.2159 22.5169 31.4094C22.6026 31.5934 21.9333 30.3755 21.5931 30.1077C21.2489 29.8416 20.23 28.7621 19.515 26.5383C18.8035 24.3092 17.9595 22.7879 19.4124 20.5823C20.8565 18.3817 20.9992 16.3192 21.1917 15.5579C21.3787 14.7915 21.3102 13.7443 23.0765 12.8391C24.8451 11.943 26.1944 11.7256 27.5042 11.2776C28.8109 10.833 30.1562 9.70036 30.7689 9.29126ZM42.5531 22.094C44.1308 26.0966 42.5607 31.5823 42.3275 32.1223C42.0954 32.6548 40.5366 35.6393 40.5179 35.6751C40.545 35.654 43.8069 33.1172 44.6859 29.4465C45.2349 27.121 42.4567 21.8559 42.5531 22.094ZM45.8841 20.8831C46.1073 21.0994 48.6187 24.8053 48.7582 25.1028C49.469 26.6394 49.9008 28.0058 49.639 29.3782C49.3764 30.7238 48.4568 31.8718 47.4623 32.7932C48.0253 32.5142 48.8561 32.0648 49.2621 31.6829C49.7625 31.2211 52.0364 27.9916 50.3851 25.1438C49.5355 23.2521 46.3053 20.9532 45.8841 20.8831ZM40.7386 27.4202C40.6288 27.1674 37.5732 31.9539 36.5287 32.5657C36.5287 32.5657 40.2409 31.1517 40.683 29.9299C41.0173 29.0016 40.8456 27.6725 40.7386 27.4202ZM35.8968 20.6887C35.9707 20.7417 35.1947 22.6461 33.9085 24.8723C32.6252 27.0975 31.8242 28.4114 31.6224 28.7034C31.4178 28.9927 31.1659 29.2239 31.2005 28.969C31.2415 28.7183 31.5838 27.7116 31.6341 27.1506C31.6848 26.5917 31.7349 26.0661 31.3314 26.1751C30.9294 26.2732 30.481 26.273 30.3001 26.135C30.1189 25.9968 30.1072 25.8385 30.2865 25.8235C30.466 25.8113 31.277 25.5852 31.6224 25.2903C31.9618 25.0033 32.1328 24.7315 32.2093 24.554C32.286 24.377 32.2824 24.2592 31.9749 24.4163C31.6754 24.566 31.0518 25.0125 30.7933 25.1731C30.5426 25.3437 30.0108 25.4826 29.9828 25.5862C29.9567 25.6897 30.1097 26.35 30.1097 27.0198C30.1097 27.6956 30.0359 28.7879 29.8265 28.6252C29.6232 28.4625 29.7145 27.9895 29.3998 27.6848C29.0811 27.3791 28.7004 26.8506 28.7494 26.3108C28.8008 25.7744 28.8769 25.6393 28.7845 25.3333C28.6954 25.0279 28.6857 24.5912 28.9505 24.5393C29.2169 24.4913 29.3214 24.7721 29.9447 24.6682C30.5284 24.5723 31.1514 24.1977 31.6224 23.8323C32.0932 23.4597 32.9055 22.5719 33.3529 22.4788C33.7968 22.3906 34.0903 22.4284 34.4408 21.9856C34.7976 21.5373 35.2175 21.128 35.4261 20.9778C35.6284 20.8229 35.8208 20.6382 35.8968 20.6887ZM31.5833 13.0403C32.157 13.0794 35.5288 14.1954 36.0091 15.1506C36.4862 16.106 35.0544 18.8802 34.639 18.9309C34.2159 18.9768 34.567 17.2907 34.1791 16.7512C33.6168 15.9772 31.4504 15.5855 30.6712 16.3665L26.1722 21.4631C26.0683 21.6005 28.241 16.8596 28.3587 16.1975C28.6277 14.7354 29.3021 12.9028 31.5833 13.0403ZM34.9388 9.35279C36.5719 9.27159 38.5863 8.82038 40.2259 9.36841C40.3782 9.38767 43.6343 11.0205 44.9955 12.5881C45.6714 13.3618 47.1072 14.918 46.8949 15.8626C46.673 16.803 46.2763 17.3134 44.8822 18.0374C44.0535 18.471 37.6445 19.8542 37.5316 19.8831C36.4751 20.1621 36.7469 19.643 37.2279 19.2678C37.7132 18.9036 38.3123 18.4089 39.8343 17.4651C41.3579 16.5202 42.0227 16.1222 42.6058 15.4553C43.6561 14.2579 42.9832 11.6423 39.9554 10.6575C38.1641 10.237 36.3786 10.7276 34.9203 9.70044C34.8242 9.63031 34.7613 9.3612 34.9388 9.35279Z" fill="url(#paint2_linear_0_469)" id="Combined Shape"/>
</g>
<defs>
<linearGradient gradientUnits="userSpaceOnUse" id="paint0_linear_0_469" x1="25.5" x2="47" y1="57.5" y2="-3">
<stop stop-color="#09BAD4"/>
<stop offset="1" stop-color="#09BAD4"/>
</linearGradient>
<linearGradient gradientUnits="userSpaceOnUse" id="paint1_linear_0_469" x1="14.3513" x2="52.6487" y1="-4.50099" y2="72.501">
<stop stop-color="white"/>
<stop offset="1" stop-color="#0B0B0B"/>
</linearGradient>
<linearGradient gradientUnits="userSpaceOnUse" id="paint2_linear_0_469" x1="90.4992" x2="27.4992" y1="34.0004" y2="9.00057">
<stop stop-color="#2358A9"/>
<stop offset="1" stop-color="#132C52"/>
</linearGradient>
<clipPath id="clip0_0_469">
<rect fill="white" height="66" width="66"/>
</clipPath>
</defs>
</svg>