<?xml version="1.0" encoding="utf-8"?>
<svg xmlns="http://www.w3.org/2000/svg" fill="none" height="100%" overflow="visible" preserveAspectRatio="none" style="display: block;" viewBox="0 0 146 78.5" width="100%">
<g id="Aerones">
<g clip-path="url(#clip0_0_589)" id="aerones-logo-rgb 1">
<g id="Layer 1">
<g id="aerones logo RGB">
<g id="Group">
<g id="Group_2">
<path d="M80.8472 32.9048C80.1328 32.1467 79.2816 31.5025 78.3088 31.0115C78.2176 30.9643 78.1226 30.9211 78.0314 30.8779L74.1174 39.17L78.2176 36.114C81.592 39.4843 80.8662 46.2562 73.0762 48.9038C76.88 49.4301 80.7484 47.4347 82.523 43.6716C84.2672 39.9792 83.473 35.6858 80.8472 32.9048Z" fill="var(--fill-0, white)" id="Vector"/>
<path d="M67.1822 46.0717C67.8966 46.8298 68.7478 47.474 69.7206 47.965C69.8118 48.0121 69.9068 48.0553 69.998 48.0985L73.912 39.8064L69.8118 42.8624C66.4374 39.4922 67.1632 32.7202 74.9532 30.0727C71.1494 29.5463 67.281 31.5418 65.5064 35.3049C63.7622 38.9972 64.5564 43.2906 67.1822 46.0717Z" fill="var(--fill-0, white)" fill-opacity="0.8" id="Vector_2"/>
</g>
<path d="M6.5 48.0671L14.1988 30.9133H17.8848L25.5874 48.0671H20.731L19.6632 45.4393H12.2418L11.2006 48.0671H6.5ZM13.6668 41.8687H18.242L16.0304 36.3772H15.8784L13.6668 41.8687Z" fill="var(--fill-0, white)" id="Vector_3"/>
<path d="M40.187 41.1852H32.321V44.2059H42.6152V48.0671H27.875V30.9133H42.0566V34.7746H32.321V37.481H40.187V41.1852Z" fill="var(--fill-0, white)" id="Vector_4"/>
<path d="M45.7312 48.0671V30.9133H54.9804C57.496 30.9133 59.073 31.6754 60.1408 32.8302C61.03 33.8004 61.5658 35.0613 61.5658 36.4833C61.5658 38.5848 60.3954 40.2385 58.5144 41.2402L62.3258 48.0711H57.2946L54.1178 42.0297H50.1772V48.0711H45.7312V48.0671ZM50.1772 34.641V38.2941H55.235C56.2762 38.2941 57.116 37.6381 57.116 36.4558C57.116 35.9844 56.9374 35.5091 56.6334 35.1674C56.2268 34.7196 55.6948 34.641 55.235 34.641H50.1772Z" fill="var(--fill-0, white)" id="Vector_5"/>
<path d="M102.047 30.9133V48.0671H98.2852L90.9664 38.7419H90.9398V48.0671H86.4672V30.9133H90.2026L97.548 40.266H97.5746V30.9133H102.047Z" fill="var(--fill-0, white)" id="Vector_6"/>
<path d="M118.585 41.1852H110.719V44.2059H121.013V48.0671H106.273V30.9133H120.454V34.7746H110.719V37.481H118.585V41.1852Z" fill="var(--fill-0, white)" id="Vector_7"/>
<path d="M136.069 35.6937C134.974 35.0377 132.892 34.0125 130.452 34.0125C129.107 34.0125 127.937 34.641 127.937 35.7448C127.937 36.9546 129.844 37.0568 131.645 37.2414C134.693 37.4496 139.5 37.8699 139.5 42.5482C139.5 46.8848 136.042 48.5895 131.873 48.5895C127.705 48.5895 124.68 46.9358 122.674 45.4117L125.064 42.285C126.208 43.1256 128.852 44.9914 131.797 44.9914C133.857 44.9914 135.05 44.0723 135.05 42.941C135.05 41.7076 133.625 41.468 131.493 41.2873C127.785 40.973 123.487 40.5763 123.487 35.9805C123.487 31.7264 127.325 30.383 130.551 30.383C133.956 30.383 136.981 31.5653 138.482 32.4845L136.069 35.6898V35.6937Z" fill="var(--fill-0, white)" id="Vector_8"/>
</g>
</g>
</g>
</g>
</g>
<defs>
<clipPath id="clip0_0_589">
<rect fill="white" height="19" transform="translate(6.5 29.9902)" width="133"/>
</clipPath>
</defs>
</svg>