<?xml version="1.0" encoding="utf-8"?>
<svg xmlns="http://www.w3.org/2000/svg" fill="none" height="100%" overflow="visible" preserveAspectRatio="none" style="display: block;" viewBox="0 0 66 66" width="100%">
<g clip-path="url(#clip0_0_379)" id="Efficio Icon 2">
<path d="M48 0H18C8.05887 0 0 8.05887 0 18V48C0 57.9411 8.05887 66 18 66H48C57.9411 66 66 57.9411 66 48V18C66 8.05887 57.9411 0 48 0Z" fill="url(#paint0_linear_0_379)" id="Vector"/>
<path d="M48 0.5H18C8.33502 0.5 0.5 8.33502 0.5 18V48C0.5 57.665 8.33502 65.5 18 65.5H48C57.665 65.5 65.5 57.665 65.5 48V18C65.5 8.33502 57.665 0.5 48 0.5Z" id="Vector_2" stroke="url(#paint1_linear_0_379)" stroke-opacity="0.41"/>
<g id="Clip path group">
<mask height="43" id="mask0_0_379" maskUnits="userSpaceOnUse" style="mask-type:luminance" width="43" x="12" y="12">
<g id="clip0_110_4380">
<path d="M54.5 12H12.5V55H54.5V12Z" fill="var(--fill-0, white)" id="Vector_3"/>
</g>
</mask>
<g mask="url(#mask0_0_379)">
</g>
</g>
<path d="M45.9609 12.0029C45.6545 11.8175 52.345 12.7551 52.4795 19.4268C52.5384 22.2965 56.7122 24.8942 56.251 28.0488C55.901 30.4031 53.5239 32.2393 52.6016 32.7412C53.1836 32.7254 53.7813 32.746 54.3828 32.8125C55.3945 32.9231 56.3625 33.5775 56.375 33.5859C56.3259 33.5919 49.5469 34.4218 47.2588 35.5342C43.5309 37.3444 38.7964 39.6047 33.4814 43.7061C28.4858 47.5635 26.0018 49.8189 20.3574 52.8154C18.4553 53.8275 16.6857 53.9416 15.8623 54.1348C15.0464 54.3331 14.1612 54.7836 14.0088 55.3438C13.8593 55.9094 13.942 56.5788 14.1357 56.751C14.3294 56.9266 14.4358 56.8599 14.5674 56.5801C14.6961 56.3028 14.5679 55.3049 15.1514 54.917C15.7362 54.5245 16.2125 54.6372 17.7236 54.417C19.233 54.2007 20.1017 53.856 20.377 53.79C20.6615 53.722 20.9428 53.8129 20.5098 54.0928C20.081 54.3717 19.259 54.9577 18.1738 55.1738C17.0959 55.3901 16.4863 55.4548 16.1865 55.6484C15.89 55.8407 15.8626 56.2304 15.8623 56.2354C15.8806 56.2333 16.6896 56.1454 17.0342 56.2158C17.3793 56.277 18.2177 56.7152 19.0781 56.7676C19.9378 56.8204 21.5381 57.1422 22.8008 55.8877C23.538 55.1527 26.3394 52.2555 30.4502 50.6074C33.9719 49.1956 39.128 49.3497 42.1895 45.4307C46.805 39.5401 54.1409 41.9083 54.5518 42.9385C45.1724 41.8483 46.049 49.0581 40.7168 50.9971C38.1158 51.9121 30.8755 51.3914 23.959 57.4727C21.7539 58.9139 18.3043 58.0713 17.417 58.0303C16.5359 57.9837 15.2555 57.9839 14.6318 58.1641C14.0089 58.3281 13.7048 58.287 13.4033 58.1152C13.0987 57.9384 12.6907 57.7679 12.0664 57.5098C11.4519 57.2511 10.9938 57.2471 10.9795 57.2471C10.9795 57.2471 10.2748 55.8651 10.5742 54.9434C10.8742 54.009 11.4982 53.4022 11.9111 53.1777C12.3263 52.9682 12.4326 52.9238 12.4326 52.9238C12.4333 52.9169 12.4427 52.793 12.2363 52.793C12.0191 52.7931 11.7819 53.0511 11.6494 53.0752C11.5208 53.0974 11.5211 52.9006 11.6748 52.6875C11.828 52.4675 12.8208 51.4768 14.2852 51.5371C15.7579 51.6058 16.9268 52.1868 17.9199 52.0146C18.9124 51.8394 20.8319 50.9967 23.3594 49.1162C25.904 47.2223 28.4928 44.5027 31.6592 42.1533C34.7656 39.8597 37.121 38.456 37.7871 38.1094C38.4585 37.765 38.5288 37.7431 38.6357 37.6562C38.7393 37.5674 38.7812 37.4845 38.1816 37.6357C37.572 37.7871 35.2647 38.5374 34.3125 39.2109C33.3654 39.8797 32.9356 40.4617 32.9297 40.4697C32.9308 40.4612 33.0618 39.4669 33.8359 38.6299C34.6192 37.7865 34.7037 37.7004 34.8525 37.5889C35.0032 37.4842 34.9402 37.3998 34.6816 37.5459C34.4225 37.7003 33.1851 38.9565 32.7334 39.6211C32.2815 40.2935 32.0408 40.6616 30.5732 40.9014C29.1085 41.1374 27.7884 41.464 27.209 42.0039C26.6311 42.5339 26.3939 43.0708 26.3877 43.085C26.3877 43.085 26.1475 43.382 26.1475 43.0195C26.1476 42.649 26.3883 41.0513 28.0947 39.7734C29.7961 38.4988 30.5962 37.9131 30.8984 37.7002C31.202 37.4843 31.1852 37.3996 30.9434 37.4189C30.7037 37.4364 28.7582 37.8087 27.8809 38.499C27.001 39.1858 26.7356 39.4653 26.7305 39.4707C26.719 39.4738 26.4936 39.5288 26.5781 39.1055C26.6672 38.6712 27.0856 37.3531 28.2246 36.6191C29.3555 35.8847 30.5432 35.4969 30.5547 35.4932L30.6006 34.373C30.6006 34.373 28.1783 33.1201 27.6396 32.6855C27.0958 32.2506 26.5562 31.7741 26.9922 29.2861C27.4189 26.7981 27.4627 26.2821 27.4463 26.0645C27.4188 25.8504 26.4482 25.0702 26.6836 23.6592C26.9231 22.2583 27.4629 21.459 27.4629 21.459C27.4629 21.459 27.3979 23.1019 27.4189 23.9883C27.4462 24.8726 27.4626 25.4117 27.7236 25.7188C27.9803 26.0213 28.0031 25.8914 28.1152 26.2207C28.2239 26.5434 27.6398 29.0045 27.4883 29.9346C27.3382 30.8649 27.0084 31.7286 27.7236 31.6465C28.4361 31.5558 28.2435 31.383 28.4365 31.1709C28.6321 30.9518 29.0217 30.8651 29.3203 30.9512C29.6242 31.0383 29.7966 31.1893 30.1006 31.1025C30.4034 31.0138 31.222 31.1031 30.749 31.6826C30.2767 32.2725 29.5191 32.0955 29.7314 32.6348C29.9475 33.1764 32.5518 34.8081 33.4717 34.2246C34.6226 33.5037 35.2125 33.3561 35.2598 32.8857C35.2989 32.4079 34.4216 31.6604 33.7959 32.0127C33.1687 32.354 32.0904 32.7252 31.4609 32.5938C30.8333 32.4669 30.6635 32.1816 30.876 32.2061C31.0953 32.2274 31.7407 32.4383 32.3486 31.7295C32.9512 31.0144 38.0619 28.4915 38.9727 27.0186C39.8795 25.5496 38.4589 21.9103 39.1553 21.2207C39.842 20.5283 44.9779 19.402 45.9072 19.0918C47.8544 18.4423 49.1806 16.7229 48.748 15.1504C48.5065 14.2792 47.2196 12.7729 45.9609 12.0029ZM14.0098 53.4551C12.47 53.1293 11.7654 54.6669 11.7197 54.8008C11.541 55.2779 12.1115 55.9547 12.2871 55.5283C12.844 54.1588 14.4364 53.5469 14.0098 53.4551ZM31.1621 9.29688C31.832 8.84712 34.1244 8.78252 35.0107 10.0107C36.0157 11.3998 41.1801 11.8305 41.9072 12.792C42.7425 13.8993 42.156 15.1367 41.7158 15.6201C40.8229 16.5875 36.8462 19.9309 36.5049 19.9678C36.114 20.0073 36.3566 18.9792 36.6963 18.084C37.0396 17.1881 37.5908 16.5626 37.4072 15.6553C37.2578 14.8842 36.7226 14.2043 35.6328 13.4795C34.0909 12.5113 31.1343 11.908 30.0752 12.3457C28.2402 13.1133 27.5743 14.8523 27.4189 16.0723C27.2639 17.2912 27.0923 18.9562 25.9414 20.9287C24.7876 22.8955 24.087 24.0287 24.3594 25.1807C24.6315 26.3377 25.5244 28.23 25.627 29.3457C25.7373 30.4617 25.604 31.3615 25.3584 32.4766C25.1164 33.5887 24.9602 34.4115 25.3076 35.1475C25.6547 35.8865 25.8249 36.0447 25.9131 36.1436C26.0003 36.2538 26.0583 36.433 25.7988 36.2539C25.5386 36.0651 24.0875 34.6294 23.5732 33.0967C23.0508 31.5642 23.5463 29.4 23.3359 28.6445C23.1245 27.8913 21.6936 25.8152 21.8037 24.0781C21.9233 22.3368 23.2876 20.4722 23.8809 19.5088C24.4761 18.5454 25.7969 16.7323 26.0732 15.9014C26.3421 15.0708 26.9106 13.5005 27.1973 13.1104C27.1943 13.113 26.9498 13.3302 25.7412 14.7998C24.5232 16.2826 23.4368 17.3476 23.1104 18.7012C22.786 20.0536 21.9952 21.3304 20.9678 22.209C19.9515 23.0917 20.5623 24.2724 20.8994 25.7051C21.2354 27.1272 21.4699 27.6384 22.252 29.0664C23.0282 30.4897 22.6586 31.6474 22.75 31.8447C22.8387 32.0348 22.1556 30.7904 21.8086 30.5176C21.4577 30.2464 20.4194 29.1462 19.6904 26.8789C18.9651 24.6064 18.1036 23.0552 19.585 20.8066C21.0572 18.5631 21.2031 16.4604 21.3994 15.6846C21.5899 14.9033 21.5208 13.8357 23.3213 12.9131C25.1242 11.9996 26.4996 11.7781 27.835 11.3213C29.1668 10.8681 30.5375 9.714 31.1621 9.29688ZM42.5537 22.0938C44.131 26.0953 42.562 31.5796 42.3281 32.1221C42.0946 32.6577 40.5176 35.6758 40.5176 35.6758C40.5176 35.6758 43.803 33.1324 44.6855 29.4463C45.2346 27.1208 42.4574 21.8556 42.5537 22.0938ZM53.9395 26.6475C53.8342 27.56 53.5112 29.7624 51.4326 31.8418C50.9485 32.3304 50.6085 32.7169 50.0859 33.001C50.785 32.8814 51.5298 32.7856 52.2998 32.75C53.2041 31.4591 54.3305 28.6227 53.9395 26.6475ZM45.8838 20.8828C46.1053 21.0965 48.6222 24.81 48.7588 25.1035C49.4695 26.6401 49.9004 28.0057 49.6387 29.3779C49.3761 30.7237 48.4566 31.8725 47.4619 32.7939C48.0249 32.515 48.8557 32.0645 49.2617 31.6826C49.7622 31.2208 52.0363 27.9914 50.3848 25.1436C49.5349 23.2515 46.3037 20.952 45.8838 20.8828ZM40.7383 27.4199C40.6284 27.1672 37.5729 31.9536 36.5283 32.5654C36.5283 32.5654 40.2406 31.1515 40.6826 29.9297C41.017 29.001 40.8453 27.6714 40.7383 27.4199ZM36.3896 20.916C36.467 20.9657 35.675 22.9086 34.3623 25.1807C33.0541 27.4488 32.238 28.7881 32.0322 29.0859C31.8234 29.3813 31.5667 29.6175 31.6025 29.3564C31.6446 29.1004 31.9927 28.0755 32.0439 27.5039C32.0956 26.934 32.1468 26.3976 31.7354 26.5088C31.3254 26.6088 30.8687 26.6086 30.6846 26.4678C30.4997 26.3269 30.4871 26.1657 30.6699 26.1504C30.8519 26.1383 31.6796 25.9083 32.0322 25.6074C32.3781 25.3149 32.5529 25.0374 32.6309 24.8564C32.7089 24.6762 32.7054 24.5562 32.3926 24.7158C32.0872 24.8684 31.4499 25.3237 31.1865 25.4873C30.931 25.6612 30.3891 25.8026 30.3604 25.9082C30.3333 26.0125 30.4902 26.6864 30.4902 27.3701C30.4902 28.0593 30.4149 29.1738 30.2012 29.0068C29.9939 28.8408 30.0877 28.3585 29.7666 28.0479C29.4417 27.7361 29.0535 27.1978 29.1035 26.6475C29.156 26.1002 29.2332 25.9629 29.1387 25.6504C29.0478 25.339 29.0384 24.8935 29.3086 24.8408C29.5802 24.7918 29.6866 25.0787 30.3223 24.9727C30.9174 24.8749 31.5521 24.4927 32.0322 24.1201C32.5121 23.7403 33.3398 22.8355 33.7959 22.7402C34.2485 22.6503 34.548 22.6897 34.9053 22.2383C35.2691 21.7812 35.6975 21.3641 35.9102 21.2109C36.1164 21.053 36.3121 20.8645 36.3896 20.916ZM31.9932 13.1191C32.5782 13.1591 36.015 14.2958 36.5049 15.2695C36.9916 16.2429 35.5324 19.0708 35.1084 19.124C34.6765 19.1716 35.0347 17.4511 34.6387 16.9014C34.0653 16.1124 31.8567 15.7135 31.0625 16.5098L26.4756 21.7051C26.371 21.8421 28.5861 17.0097 28.7051 16.3369C28.9793 14.8463 29.6672 12.9787 31.9932 13.1191ZM35.4141 9.35938C37.079 9.27668 39.133 8.81528 40.8047 9.37402C40.9577 9.39247 44.2789 11.0584 45.667 12.6572C46.356 13.4458 47.8191 15.032 47.6025 15.9951C47.3763 16.954 46.972 17.4738 45.5508 18.2119C44.7046 18.6542 38.1721 20.0644 38.0576 20.0938C36.981 20.378 37.2579 19.8492 37.748 19.4668C38.2427 19.0955 38.8538 18.591 40.4053 17.6289C41.9585 16.6656 42.637 16.26 43.2314 15.5801C44.3017 14.3592 43.6155 11.6934 40.5293 10.6895C38.7028 10.2607 36.8823 10.7607 35.3955 9.71289C35.2976 9.64142 35.2333 9.36816 35.4141 9.35938Z" fill="url(#paint2_linear_0_379)" id="Combined Shape"/>
</g>
<defs>
<linearGradient gradientUnits="userSpaceOnUse" id="paint0_linear_0_379" x1="25.5" x2="47" y1="57.5" y2="-3">
<stop stop-color="#09BAD4"/>
<stop offset="1" stop-color="#09BAD4"/>
</linearGradient>
<linearGradient gradientUnits="userSpaceOnUse" id="paint1_linear_0_379" x1="14.3513" x2="52.6487" y1="-4.50099" y2="72.501">
<stop stop-color="white"/>
<stop offset="1" stop-color="#0B0B0B"/>
</linearGradient>
<linearGradient gradientUnits="userSpaceOnUse" id="paint2_linear_0_379" x1="90.5" x2="27.5" y1="34" y2="9">
<stop stop-color="#2358A9"/>
<stop offset="1" stop-color="#132C52"/>
</linearGradient>
<clipPath id="clip0_0_379">
<rect fill="white" height="66" width="66"/>
</clipPath>
</defs>
</svg>